<svg width="404" height="54" viewBox="0 0 404 54" fill="none" xmlns="http://www.w3.org/2000/svg">
<g clip-path="url(#clip0_12_548)">
<path fill-rule="evenodd" clip-rule="evenodd" d="M381.496 17.2775C388.993 17.2705 396.49 17.2876 403.987 17.2705C404.01 19.0465 403.996 20.8225 404.001 22.5985C401.363 22.5945 398.729 22.5985 396.095 22.5985C396.095 30.3333 396.095 38.0661 396.095 45.8008C393.861 45.8008 391.632 45.8008 389.402 45.8008C389.402 38.0661 389.402 30.3333 389.402 22.5985C386.768 22.5985 384.129 22.5945 381.5 22.6025C381.491 20.8255 381.491 19.0495 381.496 17.2775ZM349.123 17.3367C351.362 17.1903 353.613 17.3156 355.865 17.2846C352.803 21.698 349.56 25.986 346.48 30.3864C349.901 35.5991 353.668 40.6273 357.184 45.7968C354.641 45.8078 352.102 45.7938 349.564 45.8038C346.288 41.1106 342.94 36.4706 339.637 31.7944C339.674 36.4635 339.646 41.1277 339.651 45.7928C337.405 45.8028 335.157 45.8068 332.914 45.7888C332.941 36.281 332.891 26.7733 332.937 17.2655C335.175 17.2866 337.409 17.2725 339.651 17.2755C339.656 21.6579 339.646 26.0402 339.656 30.4225C342.808 26.0633 345.925 21.6669 349.123 17.3367ZM365.564 23.4499C364.209 24.9361 364.022 27.047 363.867 28.9624C367.015 28.9694 370.154 28.9664 373.302 28.9624C373.229 26.7291 373.202 23.9624 371.114 22.5945C369.381 21.6288 366.869 21.8654 365.564 23.4499ZM359.336 21.7782C357.321 25.0474 356.835 29.0106 356.967 32.7832C357.099 36.0203 357.794 39.4058 359.837 42.0041C361.697 44.4811 364.727 45.8139 367.734 46.202C371.842 46.6933 376.223 46.1598 379.789 43.9306C379.807 42.1024 379.79 40.2743 379.803 38.4451C377.443 39.813 374.822 40.7657 372.097 40.9893C370 41.1568 367.666 40.9893 365.992 39.5793C364.381 38.1904 364.05 35.9571 363.863 33.9585C369.272 33.9094 374.69 33.9515 380.103 33.9374C380.085 30.574 380.29 27.1233 379.257 23.8711C378.625 21.6769 377.328 19.6281 375.404 18.3656C372.897 16.75 369.744 16.4632 366.851 16.8824C363.776 17.2665 360.933 19.1127 359.336 21.7782ZM314.581 22.2074C312.572 22.6055 311.352 24.5279 310.858 26.3842C310.156 29.2101 310.177 32.1725 310.511 35.0476C310.791 37.1023 311.449 39.4189 313.365 40.529C315.6 41.61 318.742 41.0244 320.034 38.767C321.352 36.5618 321.435 33.8863 321.491 31.3883C321.429 28.824 321.304 26.0603 319.827 23.8691C318.717 22.1763 316.433 21.7501 314.581 22.2074ZM314.783 17.1762C318.039 16.1123 321.898 16.8804 324.353 19.3293C327.111 21.9988 328.125 25.9449 328.37 29.6674C328.611 33.8442 328.139 38.2997 325.828 41.8858C323.904 44.8732 320.341 46.6302 316.813 46.3514C314.143 46.2571 311.749 44.6386 310.268 42.4745C310.299 46.3163 310.285 50.1571 310.275 53.9989C308.044 53.9989 305.815 53.9959 303.587 53.9989C303.597 41.7635 303.594 29.527 303.587 17.2906C305.655 17.2665 307.724 17.2836 309.795 17.2735C309.889 18.4849 310.007 19.6953 310.122 20.9027C311.31 19.2872 312.825 17.79 314.783 17.1762ZM284.215 33.5403C282.178 34.5933 282.049 37.4022 282.895 39.2865C283.788 41.1638 286.179 41.5228 288.018 41.1397C289.404 40.9542 290.583 40.1138 291.476 39.0669C291.462 36.8587 291.469 34.6524 291.469 32.4472C289.04 32.5555 286.429 32.347 284.215 33.5403ZM283.162 17.2916C286.739 16.6187 290.628 16.5034 294.024 17.9966C296.613 19.1829 297.952 22.0299 298.105 24.7726C298.342 31.7784 297.844 38.8091 298.508 45.8008C296.305 45.8008 294.101 45.8008 291.901 45.8008C291.71 45.0156 291.536 44.2314 291.386 43.4422C289.878 44.8792 287.994 45.9783 285.881 46.1107C283.037 46.4456 279.809 45.9332 277.795 43.714C275.706 41.5087 275.199 38.1834 275.704 35.2742C276.169 32.7451 278.112 30.6963 280.421 29.7025C283.869 28.1221 287.748 27.9787 291.477 28.0067C291.432 26.3631 291.672 24.3675 290.323 23.1501C288.766 21.9988 286.671 22.1272 284.853 22.3548C282.287 22.7489 279.716 23.5372 277.564 25.0304C277.595 23.1882 277.515 21.346 277.595 19.5068C279.182 18.3034 281.247 17.804 283.162 17.2916ZM237.559 6.37384C240.569 6.36983 243.582 6.37685 246.596 6.36983C249.185 16.0451 251.803 25.7133 254.44 35.3745C257.121 25.7133 259.738 16.035 262.417 6.37384C265.365 6.36983 268.316 6.38086 271.267 6.36682C271.26 19.5098 271.267 32.6498 271.263 45.7928C269.118 45.8099 266.977 45.7888 264.832 45.8068C264.832 35.9571 264.839 26.1074 264.832 16.2587C262.045 26.0693 259.5 35.9581 256.81 45.7968C254.93 45.8038 253.049 45.7968 251.168 45.8038C248.523 35.9401 245.796 26.1014 243.24 16.2165C243.041 26.0733 243.209 35.9401 243.153 45.8008C241.283 45.8008 239.413 45.8008 237.547 45.8008C237.558 32.6608 237.538 19.5168 237.559 6.37384Z" fill="white"/>
<path fill-rule="evenodd" clip-rule="evenodd" d="M113.828 17.2735C116.066 17.2836 118.304 17.2705 120.546 17.2836C120.543 21.6589 120.539 26.0342 120.55 30.4135C123.699 26.0342 126.873 21.6769 130.004 17.2876C132.271 17.2735 134.536 17.2625 136.802 17.2946C133.622 21.6589 130.49 26.0593 127.309 30.4246C130.893 35.553 134.501 40.6654 138.088 45.7898C135.547 45.8139 133.01 45.7898 130.469 45.8038C127.171 41.1738 123.928 36.4986 120.56 31.9178C120.518 36.5438 120.557 41.1738 120.543 45.8008C118.297 45.8008 116.052 45.8008 113.807 45.8008C113.825 36.2931 113.783 26.7813 113.828 17.2735ZM67.6684 22.6055C67.6094 28.6104 67.4186 34.7928 65.3086 40.4799C68.4716 40.4698 71.6385 40.4969 74.8014 40.4658C74.7775 34.506 74.8014 28.5473 74.7914 22.5915C72.4157 22.6085 70.042 22.5875 67.6684 22.6055ZM61.888 17.2775C68.4196 17.2775 74.9503 17.2775 81.4849 17.2816C81.4819 25.0133 81.4849 32.7451 81.4849 40.4799C82.479 40.4799 83.48 40.4799 84.481 40.4799C84.481 44.4189 84.481 48.362 84.481 52.3011C82.4061 52.2941 80.3381 52.3081 78.2661 52.2911C78.2731 50.131 78.2521 47.9679 78.2801 45.8078C73.2579 45.7798 68.2348 45.8289 63.2117 45.7838C63.1767 47.9539 63.1837 50.121 63.2047 52.2911C61.1257 52.3081 59.0477 52.2941 56.9727 52.3011C56.9797 48.362 56.9837 44.426 56.9727 40.4869C57.6331 40.4799 58.3004 40.4768 58.9638 40.4728L59.1586 40.3685C60.2186 37.9888 60.764 35.4206 61.1397 32.8534C61.871 27.6959 61.9299 22.4762 61.888 17.2775ZM31.7352 17.2816C33.98 17.2816 36.2298 17.2635 38.4777 17.2956C38.4607 21.0532 38.4707 24.8107 38.4707 28.5723C41.4668 28.5753 44.4639 28.5683 47.4629 28.5753C47.4769 24.8037 47.435 21.0321 47.4839 17.2635C49.7088 17.2946 51.9326 17.2635 54.1575 17.2846C54.1505 26.7893 54.1575 36.2971 54.1545 45.8008C51.9236 45.8008 49.6948 45.8008 47.4629 45.8008C47.4629 41.8307 47.4629 37.8635 47.4629 33.8923C44.4639 33.8953 41.4668 33.8883 38.4707 33.8953C38.4637 37.8625 38.4747 41.8297 38.4677 45.7998C36.2219 45.7998 33.977 45.7998 31.7352 45.7998C31.7352 36.2931 31.7352 26.7853 31.7352 17.2816ZM141.812 20.0373C138.885 22.8743 137.78 27.0851 137.703 31.0593C137.661 34.8279 138.187 38.8573 140.516 41.949C142.396 44.4962 145.486 45.8841 148.569 46.223C151.756 46.5539 155.225 46.4567 157.999 44.6416C157.989 42.8074 157.999 40.9712 157.992 39.1361C155.587 40.7767 152.521 41.4004 149.671 40.8489C147.568 40.4307 146.003 38.6517 145.392 36.6551C144.482 33.7449 144.444 30.587 145.03 27.6116C145.496 25.2149 147.112 22.8211 149.609 22.2666C152.459 21.6388 155.455 22.43 157.996 23.7668C157.996 21.8755 157.986 19.9852 158.006 18.0968C155.868 16.9667 153.397 16.7711 151.029 16.7089C147.704 16.6387 144.211 17.6366 141.812 20.0373ZM94.3045 24.0185C93.3864 25.4907 93.1886 27.2627 93.0527 28.9554C96.1987 28.9765 99.3406 28.9624 102.487 28.9624C102.438 26.7993 102.382 24.207 100.529 22.7449C98.5863 21.4332 95.5303 21.9427 94.3045 24.0185ZM89.9687 19.9461C92.4024 17.3437 96.1627 16.4051 99.6183 16.7781C102.593 16.9566 105.652 18.3837 107.175 21.0522C109.563 24.887 109.302 29.5932 109.288 33.9304C103.879 33.9515 98.4675 33.9264 93.0597 33.9415C93.2435 36.0343 93.6471 38.4251 95.4374 39.7749C97.0089 40.9542 99.0869 41.1076 100.981 41.0174C103.834 40.8318 106.606 39.8862 109.035 38.386C108.959 40.2241 109.164 42.0844 108.934 43.9095C105.691 46.0345 101.659 46.578 97.8601 46.2962C94.6931 46.0656 91.4333 44.8933 89.3473 42.3882C86.7019 39.2905 86.0735 35.0165 86.1354 31.0664C86.2393 27.1092 87.1255 22.8703 89.9687 19.9461ZM10.4339 7.0648C13.2182 6.32471 16.1174 6.37385 18.9706 6.37385C21.3453 6.38087 23.719 6.3568 26.0967 6.3909C26.0717 19.5269 26.0927 32.6639 26.0857 45.7998C23.8089 45.7998 21.5361 45.7998 19.2623 45.7998C19.2663 34.4469 19.2623 23.0959 19.2623 11.743C16.0994 11.7079 12.5438 11.4501 9.93336 13.5992C7.1071 15.9368 7.22599 20.2599 8.60865 23.3577C10.4579 26.8675 14.2152 28.6195 17.2952 30.8558C14.1043 35.904 10.6846 40.7998 7.40981 45.7928C4.93921 45.8099 2.4706 45.7928 0 45.8028C2.96113 41.3433 5.96821 36.9228 8.92934 32.4673C5.68648 30.2029 2.54453 27.2857 1.45259 23.3436C0.455558 19.6252 0.705316 15.3832 2.86722 12.11C4.56357 9.47257 7.44877 7.8119 10.4339 7.0648Z" fill="white"/>
<path fill-rule="evenodd" clip-rule="evenodd" d="M190.248 27.8593C195.316 20.9298 200.221 13.886 205.243 6.92139C207.51 7.82493 209.775 8.74251 212.045 9.65007C213.053 10.1384 214.322 10.337 215.142 11.0771C214.284 15.3822 213.175 19.6392 212.25 23.9303C215.337 21.3691 218.382 18.7527 221.468 16.1845C222.963 19.6492 223.623 23.4419 223.432 27.2105L223.404 27.2386C218.305 31.8094 213.306 36.4986 208.155 41.0093C205.541 39.6204 202.892 38.2987 200.22 37.0251C201.228 33.0369 202.222 29.0457 203.206 25.0544C198.485 32.008 193.932 39.0769 189.204 46.0235C185.878 44.6737 182.541 43.3439 179.211 42.0041C180.233 37.9848 181.203 33.9515 182.239 29.9322C179.812 33.1773 177.39 36.4254 174.981 39.6806C173.094 36.5789 171.811 33.1001 171.412 29.4789C175.531 24.556 179.58 19.573 183.654 14.615C183.904 14.3884 184.161 13.7957 184.586 14.1166C187.155 15.3511 189.696 16.6568 192.236 17.9615C191.545 21.2547 190.906 24.559 190.248 27.8593Z" fill="black"/>
<path fill-rule="evenodd" clip-rule="evenodd" d="M189.205 46.0235C193.933 39.0769 198.486 32.008 203.207 25.0544C202.223 29.0457 201.229 33.0369 200.221 37.0251C202.893 38.2987 205.543 39.6204 208.156 41.0094C213.307 36.4977 218.306 31.8085 223.405 27.2386C223.147 36.8296 217.068 45.8951 208.403 49.8934C202.789 52.5308 196.245 53.0653 190.283 51.3795C183.946 49.6076 178.375 45.3335 174.982 39.6806C177.391 36.4255 179.814 33.1773 182.24 29.9322C181.204 33.9515 180.234 37.9848 179.212 42.0042C182.542 43.3439 185.88 44.6737 189.205 46.0235Z" fill="#FED104"/>
<path fill-rule="evenodd" clip-rule="evenodd" d="M185.522 2.83593C191.754 -0.416225 199.332 -0.869501 205.946 1.46507C212.891 3.87887 218.686 9.35327 221.469 16.1845C218.383 18.7527 215.338 21.3691 212.251 23.9303C213.176 19.6392 214.284 15.3822 215.143 11.0771C214.323 10.337 213.054 10.1385 212.046 9.65011C209.776 8.74256 207.511 7.82497 205.244 6.92143C200.222 13.885 195.317 20.9299 190.249 27.8594C190.907 24.5591 191.546 21.2548 192.237 17.9615C189.697 16.6558 187.156 15.3512 184.587 14.1167C184.163 13.7958 183.906 14.3884 183.655 14.6151C179.582 19.573 175.532 24.5551 171.413 29.4789C170.95 24.8238 171.416 20.0193 173.359 15.7252C175.757 10.1876 180.126 5.52249 185.522 2.83593Z" fill="#FED104"/>
</g>
<defs>
<clipPath id="clip0_12_548">
<rect width="404" height="54" fill="white"/>
</clipPath>
</defs>
</svg>
